<?xml version="1.0" encoding="UTF-8" standalone="no"?>
<svg
   xmlns:dc="http://purl.org/dc/elements/1.1/"
   xmlns:cc="http://web.resource.org/cc/"
   xmlns:rdf="http://www.w3.org/1999/02/22-rdf-syntax-ns#"
   xmlns:svg="http://www.w3.org/2000/svg"
   xmlns="http://www.w3.org/2000/svg"
   xmlns:xlink="http://www.w3.org/1999/xlink"
   xmlns:sodipodi="http://sodipodi.sourceforge.net/DTD/sodipodi-0.dtd"
   xmlns:inkscape="http://www.inkscape.org/namespaces/inkscape"
   version="1.0"
   width="858.89001pt"
   height="271.28pt"
   viewBox="0 0 525 425"
   preserveAspectRatio="xMidYMid meet"
   id="svg2300"
   sodipodi:version="0.32"
   inkscape:version="0.44.1"
   sodipodi:docname="deuxfrere - 2.svg"
   sodipodi:docbase="/home/fvuillemin/Documents/Images"
   inkscape:export-filename="/home/fvuillemin/Documents/Images/deuxfrere - 2.png"
   inkscape:export-xdpi="31.576836"
   inkscape:export-ydpi="31.576836">
  <defs
     id="defs3273">
    <linearGradient
       id="linearGradient2831">
      <stop
         style="stop-color:#1009f0;stop-opacity:1;"
         offset="0"
         id="stop2833" />
      <stop
         style="stop-color:#10f0f0;stop-opacity:1;"
         offset="1"
         id="stop2835" />
    </linearGradient>
    <linearGradient
       inkscape:collect="always"
       xlink:href="#linearGradient2831"
       id="linearGradient2837"
       x1="-225.04752"
       y1="218.64943"
       x2="913.41495"
       y2="218.64943"
       gradientUnits="userSpaceOnUse"
       gradientTransform="matrix(0.823449,4.532837e-7,-7.476488e-7,0.82345,-82.52293,20.43392)" />
  </defs>
  <sodipodi:namedview
     inkscape:window-height="974"
     inkscape:window-width="1392"
     inkscape:pageshadow="2"
     inkscape:pageopacity="0.0"
     borderopacity="1.0"
     bordercolor="#666666"
     pagecolor="#ffffff"
     id="base"
     inkscape:zoom="1.2463556"
     inkscape:cx="550.40733"
     inkscape:cy="169.88284"
     inkscape:window-x="0"
     inkscape:window-y="0"
     inkscape:current-layer="g1313"
     showgrid="true"
     showguides="true"
     inkscape:grid-points="false"
     inkscape:grid-bbox="true"
     inkscape:guide-bbox="true" />
  <metadata
     id="metadata2302">
Created by potrace 1.7, written by Peter Selinger 2001-2005
<rdf:RDF>
  <cc:Work
     rdf:about="">
    <dc:format>image/svg+xml</dc:format>
    <dc:type
       rdf:resource="http://purl.org/dc/dcmitype/StillImage" />
  </cc:Work>
</rdf:RDF>
</metadata>
  <g
     id="g1313">
    <rect
       style="fill:none;fill-opacity:1;fill-rule:nonzero;stroke:none;stroke-width:6.38238573;stroke-linejoin:miter;stroke-miterlimit:4;stroke-dasharray:none;stroke-opacity:1"
       id="rect3960"
       width="1343.1281"
       height="424.53864"
       x="-403.26389"
       y="-0.23442185" />
    <text
       xml:space="preserve"
       style="font-size:392.45672607px;font-style:normal;font-variant:normal;font-weight:normal;font-stretch:normal;text-align:start;line-height:125%;writing-mode:lr-tb;text-anchor:start;opacity:1;fill:url(#linearGradient2837);fill-opacity:1;stroke:#00006e;stroke-width:4.12818193;stroke-linecap:butt;stroke-linejoin:miter;stroke-miterlimit:4;stroke-dasharray:none;stroke-opacity:1;font-family:El Abogado Loco"
       x="-270.22534"
       y="300.224"
       id="text2210"
       sodipodi:linespacing="125%"
       transform="matrix(1.103499,-0.20224,-0.231216,0.948584,0,0)"><tspan
         sodipodi:role="line"
         id="tspan2212"
         x="-270.22534"
         y="300.224"
         style="fill:url(#linearGradient2837);fill-opacity:1;stroke:#00006e;stroke-width:4.12818193;stroke-miterlimit:4;stroke-dasharray:none;stroke-opacity:1">Miradou</tspan></text>
    <path
       style="fill:none;fill-opacity:1;fill-rule:nonzero;stroke:#00006e;stroke-width:6.3180151;stroke-linejoin:miter;marker-start:none;stroke-miterlimit:4;stroke-dasharray:none;stroke-opacity:0.96078432"
       d="M -371.63573,424.55593 C -371.64199,424.54509 -371.68714,424.50458 -371.69311,424.49364 C -371.69876,424.48256 -371.68773,424.44255 -371.69311,424.43137 C -371.69817,424.42 -371.7457,424.38049 -371.75049,424.36905 C -371.75495,424.35746 -371.74629,424.31843 -371.75049,424.30675 C -372.71145,421.39196 -364.89219,414.91217 -362.05406,416.89325 C -361.00351,417.57766 -358.28345,416.87044 -355.97226,415.27349 C -352.61048,412.99211 -351.13093,412.99211 -349.02984,415.27349 C -347.34568,417.10216 -346.03314,418.02376 -345.07094,417.9523 C -344.98747,417.94312 -344.86291,417.91381 -344.78409,417.89 C -344.72172,417.86865 -344.61413,417.79615 -344.55456,417.76542 C -344.36328,417.65791 -344.14404,417.4734 -343.9808,417.26706 C -343.42281,416.52639 -343.01403,415.20484 -342.71857,413.27996 C -342.29834,410.54227 -340.61265,407.52655 -338.93176,406.61403 C -337.2509,405.70149 -333.87957,403.87111 -331.35822,402.50233 C -327.78637,400.67723 -325.90115,401.17909 -320.85855,405.74183 C -313.08448,412.35786 -309.93703,412.56578 -309.09659,406.17796 C -308.67641,403.44029 -306.37736,399.75953 -303.64593,398.39067 C -300.9145,396.79368 -295.43409,387.90889 -289.7611,375.5895 C -284.71848,364.41074 -277.38181,350.97469 -273.17962,345.49942 C -268.97742,340.25224 -264.97417,333.86726 -264.3438,331.35772 C -263.58214,329.08348 -262.67067,327.14613 -261.87666,326.80993 C -261.83563,326.79255 -261.74483,326.81877 -261.70456,326.80993 C -261.67788,326.80598 -261.61606,326.80993 -261.58978,326.80993 C -261.5836,326.81138 -261.53923,326.80776 -261.53241,326.80993 C -260.53916,327.24823 -254.82458,332.97192 -248.56558,339.76796 C -242.05217,347.06837 -232.18785,357.15531 -226.93509,361.94615 C -221.89903,366.57309 -217.74058,371.5895 -217.12389,373.59593 C -217.10975,373.64566 -217.07607,373.73713 -217.06651,373.78284 C -217.06122,373.81244 -217.06973,373.87969 -217.06651,373.90744 C -217.06435,373.93428 -217.06651,374.00708 -217.06651,374.03204 C -217.06544,374.05816 -217.06973,374.12821 -217.06651,374.15661 C -217.06011,374.20099 -217.02023,374.29417 -217.00913,374.34354 C -216.50363,376.38375 -212.28685,382.39907 -206.96847,388.17374 C -196.17357,400.13445 -185.1759,407.58962 -177.25084,421.6232 L -158.71859,421.6232 C -156.82761,412.95393 -151.38315,410.22739 -145.28997,410.22732 C -142.55852,410.22732 -139.7811,408.62603 -139.15078,406.80091 C -138.31037,404.97582 -136.64332,403.37449 -134.96238,403.37453 C -133.91185,403.37453 -133.01234,402.98588 -132.49526,402.44004 C -132.47034,402.41229 -132.40351,402.34413 -132.38049,402.31547 C -132.25918,402.1554 -132.15173,401.93747 -132.09362,401.75478 C -132.07476,401.68769 -132.04588,401.5749 -132.03625,401.50557 C -132.03078,401.45318 -132.03625,401.37214 -132.03625,401.31866 C -132.03625,401.30799 -132.03676,401.2678 -132.03625,401.25637 C -132.03521,401.24418 -132.03774,401.207 -132.03625,401.1941 C -132.03219,401.16677 -131.98491,401.09973 -131.97887,401.0695 C -131.55331,399.15411 -127.53485,391.95041 -122.5693,384.18663 C -117.56279,376.14124 -113.52862,368.72058 -113.15977,367.05462 C -113.14964,367.0031 -113.1044,366.90659 -113.10237,366.86775 C -113.10237,366.63245 -113.10172,366.38846 -113.04499,366.18246 C -113.01154,366.07167 -112.92049,365.90954 -112.87288,365.80865 C -112.81477,365.69298 -112.71777,365.53581 -112.64339,365.43486 C -112.50129,365.25152 -112.31038,365.06248 -112.127,364.93647 C -112.08412,364.90848 -111.99932,364.83654 -111.95486,364.81188 C -111.8052,364.73347 -111.59939,364.66368 -111.43848,364.625 C -111.34154,364.60428 -111.19263,364.56802 -111.09425,364.5627 C -111.07782,364.56224 -111.05328,364.5627 -111.03685,364.5627 C -107.6751,364.5627 -108.51713,355.00477 -112.29913,350.67018 C -114.82044,347.7044 -115.03215,345.64068 -113.56137,342.44682 C -112.30072,340.16545 -112.05185,337.0032 -113.10237,334.72184 C -114.36305,332.21231 -113.09675,328.75448 -108.68449,322.82284 C -103.67465,316.21757 -96.7072,312.61838 -94.742262,314.78638 C -94.733447,314.79654 -94.693456,314.83826 -94.684883,314.84864 C -94.676533,314.85938 -94.635662,314.90004 -94.627515,314.91095 C -94.6196,314.92212 -94.577848,314.96186 -94.570136,314.97327 C -94.555138,314.99662 -94.526894,315.07354 -94.512738,315.09786 C -94.321502,315.4454 -94.225884,315.91944 -94.225884,316.46844 C -94.225555,316.4773 -94.226562,316.52187 -94.225884,316.5307 C -94.221927,316.55714 -94.175366,316.62924 -94.168506,316.6553 C -94.165903,316.664 -94.171418,316.70898 -94.168506,316.71762 C -94.155559,316.75204 -94.129038,316.80839 -94.111137,316.84221 C -93.542354,317.78103 -91.085645,318.52427 -88.144101,318.52427 C -79.739706,318.29614 -72.357076,325.14614 -65.423468,339.51878 C -53.447173,364.84206 -30.759111,398.12475 -23.195186,401.31866 C -20.043514,402.6875 -15.61849,405.66196 -13.097122,408.17149 C -9.7353747,411.59356 -5.5673605,412.74029 5.1482352,412.96845 C 12.557861,413.1859 19.247704,412.55983 20.58222,411.90938 C 20.592424,411.90404 20.630076,411.85242 20.639599,411.84707 C 20.648363,411.84175 20.688895,411.85242 20.696967,411.84707 C 20.704268,411.84175 20.690369,411.79012 20.696967,411.78477 C 23.218284,409.0471 30.78204,410.19038 35.614524,413.84064 C 40.657193,417.71899 42.806648,417.03111 43.647109,411.09952 C 45.117869,400.1489 49.904213,384.41215 52.42552,382.13081 C 54.106432,380.76198 59.81472,378.95265 65.277602,378.26831 C 73.892102,377.35576 74.916664,376.43452 74.916664,371.41548 C 74.916664,367.99342 76.583731,364.8102 79.105071,363.44132 C 81.836463,361.84433 83.561745,358.18121 83.981992,353.1621 C 84.612324,345.63355 85.201277,344.97559 96.547169,341.32544 C 103.0606,339.27221 112.5419,336.96367 117.37442,336.27927 C 125.56873,334.91045 126.38632,335.37366 129.538,341.76153 C 131.35509,345.26917 133.60013,348.37857 134.70177,348.61435 C 134.71059,348.61585 134.75049,348.61316 134.75915,348.61435 C 134.76752,348.6147 134.80834,348.61435 134.81654,348.61435 C 136.07721,348.61435 141.74757,346.1392 147.84074,342.94521 C 153.7238,339.75128 159.79586,337.21369 161.26659,337.21375 C 163.7879,337.21375 167.3476,330.81383 166.71722,327.6198 C 166.71609,327.61238 166.71796,327.56525 166.71722,327.55754 C 166.71742,327.54919 166.71663,327.50386 166.71722,327.49523 C 166.72049,327.46848 166.76741,327.39999 166.77463,327.37062 C 167.15686,326.15919 170.48722,323.0228 174.52028,319.89482 C 181.66403,314.87581 183.36165,314.39505 187.774,316.90451 C 190.50544,318.5015 193.87679,321.26801 195.34755,323.32123 C 196.08786,324.34428 196.65697,325.03941 197.18358,325.37706 C 197.20916,325.39271 197.27286,325.42546 197.29829,325.43935 C 197.34902,325.46549 197.42016,325.48247 197.47044,325.50167 C 197.49553,325.5104 197.56012,325.55698 197.58519,325.56397 C 197.61023,325.57011 197.67489,325.55958 197.69996,325.56397 C 197.72502,325.56749 197.78957,325.56221 197.81467,325.56397 C 197.83986,325.56483 197.9042,325.56489 197.92944,325.56397 C 197.95475,325.56219 198.01873,325.56753 198.04419,325.56397 C 198.0697,325.5595 198.13325,325.57022 198.15897,325.56397 C 198.18477,325.55685 198.24767,325.51064 198.27367,325.50167 C 198.35222,325.47214 198.47931,325.42294 198.56058,325.37706 C 199.24221,324.9718 200.05079,323.99089 201.19984,322.38675 C 202.88072,319.87726 205.17893,316.44562 206.01936,314.84864 C 206.18681,314.51536 206.39359,314.21107 206.59312,313.9765 C 206.61688,313.94961 206.68346,313.87739 206.70787,313.85189 C 206.76962,313.78991 206.87136,313.7181 206.93735,313.66502 C 207.09803,313.54182 207.32037,313.42441 207.51111,313.35351 C 207.64018,313.30917 207.82485,313.24942 207.97011,313.22889 C 209.42611,313.05623 211.73822,314.07474 215.88792,316.46844 C 225.553,322.17187 228.49673,322.36051 232.6989,318.02588 C 234.16967,316.20078 237.36807,315.32684 239.46921,315.78315 C 239.48724,315.79026 239.50832,315.77642 239.5266,315.78315 C 241.84676,316.57632 245.62557,314.0955 249.96887,308.93032 C 253.63271,304.51015 257.69535,300.92535 259.09156,300.70695 C 259.10247,300.70563 259.13839,300.70782 259.14895,300.70695 C 259.15918,300.70649 259.19649,300.70695 259.20632,300.70695 C 259.24494,300.7055 259.33487,300.71279 259.37848,300.70695 C 262.95066,300.13176 281.74015,286.14246 283.82035,282.51587 C 283.86123,282.44121 283.90946,282.3318 283.93508,282.26666 C 283.95311,282.21611 283.98462,282.12393 283.99246,282.07978 C 283.99377,282.06915 283.99181,282.02769 283.99246,282.01748 C 283.99246,282.01032 283.99166,281.96229 283.99246,281.95519 C 283.99489,281.94807 283.98922,281.9 283.99246,281.89288 C 284.00058,281.87864 284.03861,281.84478 284.04983,281.83058 C 284.06266,281.81637 284.0913,281.78246 284.10723,281.76826 C 285.12807,280.94031 291.42004,280.14848 298.91006,280.14853 C 305.77149,280.14853 310.33218,280.70028 311.8769,281.5191 C 311.97045,281.57122 312.09441,281.65139 312.16377,281.70597 C 312.17465,281.71515 312.21093,281.75906 312.22115,281.76826 C 312.25927,281.80548 312.30874,281.85463 312.3359,281.89288 C 312.34197,281.90251 312.38786,281.94547 312.39329,281.95519 C 312.39797,281.96493 312.38927,282.00768 312.39329,282.01748 C 312.39659,282.02734 312.44799,282.06984 312.45066,282.07978 C 312.45259,282.08975 312.44942,282.13203 312.45066,282.14209 C 312.4512,282.15217 312.45083,282.1942 312.45066,282.20434 C 312.44979,282.21458 312.45226,282.25638 312.45066,282.26666 C 312.4438,282.29772 312.40652,282.35967 312.39329,282.39126 C 312.38301,282.41245 312.34903,282.43217 312.3359,282.45356 C 312.25713,282.59615 312.20398,282.76308 312.16377,282.88964 C 312.15046,282.93627 312.11449,283.03261 312.10639,283.07655 C 312.10214,283.10522 312.10836,283.17377 312.10639,283.20115 C 312.10599,283.21451 312.10626,283.2504 312.10639,283.26345 C 312.10784,283.28883 312.10277,283.36409 312.10639,283.38801 C 312.11349,283.42287 312.15178,283.48122 312.16377,283.51264 C 312.1774,283.5429 312.20277,283.61063 312.22115,283.63723 C 312.22781,283.64566 312.27137,283.69151 312.27852,283.69954 C 312.28672,283.70666 312.32717,283.75512 312.3359,283.76183 C 312.34513,283.76806 312.38353,283.75609 312.39329,283.76183 C 312.40351,283.7671 312.4399,283.81931 312.45066,283.82414 C 312.47312,283.83277 312.54101,283.81744 312.5654,283.82414 C 312.59078,283.82979 312.65283,283.88281 312.68014,283.88641 C 312.73669,283.89152 312.84562,283.89002 312.90967,283.88641 C 313.1566,283.86466 313.48294,283.73534 313.82767,283.57494 C 313.84076,283.5696 313.87182,283.57989 313.88503,283.57494 C 313.96474,283.54754 314.08964,283.52624 314.17192,283.51264 C 314.19945,283.50886 314.25887,283.51489 314.28666,283.51264 C 314.32855,283.51032 314.41634,283.51158 314.45879,283.51264 C 314.50142,283.51479 314.58779,283.50715 314.63089,283.51264 C 314.67421,283.51925 314.75929,283.50278 314.80305,283.51264 C 316.32479,283.8906 318.14211,286.22057 319.50784,289.74246 C 323.71,300.00865 325.81091,301.82919 334.42541,302.51361 C 338.41751,302.96989 344.10646,303.67707 347.04801,304.13337 C 349.98955,304.81778 357.49828,303.69473 363.8016,301.64143 C 370.1049,299.58817 377.05766,297.75793 378.9487,297.52975 C 381.04979,297.30158 384.42115,295.22214 386.52223,293.16888 C 391.35477,288.37797 396.62354,288.19105 399.14483,292.98197 C 402.0864,298.68539 419.92568,300.22532 443.66809,297.03136 C 452.07248,295.89072 456.71657,293.86909 460.70857,289.30639 C 464.70067,284.97176 470.78382,282.20087 482.9702,279.46323 C 492.00496,277.40999 501.88867,275.60081 504.83022,275.60074 C 507.77179,275.60074 514.91609,272.87627 520.37894,269.68243 C 529.20357,264.66342 531.26643,264.1826 535.46865,266.69207 C 539.67084,269.20162 542.19206,268.99283 550.38624,265.57072 C 555.84914,263.28938 564.71785,260.56486 570.18074,259.6524 C 575.4335,258.51167 582.78876,255.99519 586.36061,254.17013 C 589.72238,252.1169 595.39198,250.4946 598.75368,250.49456 C 602.11544,250.49456 606.09929,249.14241 607.35997,247.31732 C 610.0914,243.6671 621.21323,240.23724 626.46598,241.14981 C 628.14685,241.37792 631.51821,242.7503 634.03953,243.89095 C 637.61139,245.94418 641.60967,244.79745 654.00617,239.09394 C 662.41057,235.21561 670.81951,230.66094 672.7105,229.06392 C 674.39139,227.23882 677.93492,225.20061 680.4562,224.51619 C 682.97752,223.60362 691.17552,215.86639 698.52944,207.19725 C 708.19448,196.24665 714.71648,190.76894 720.38945,188.94385 C 724.80174,187.80315 730.27981,185.03751 732.38089,183.21239 C 734.69213,181.38731 737.85252,179.78598 739.32331,179.78598 C 745.62663,179.78598 766.79468,167.00526 772.8879,159.47676 C 776.6699,154.91401 779.62017,150.35924 779.83029,149.44673 C 779.83029,149.43335 779.82986,149.39812 779.83029,149.38443 C 779.83496,149.31469 779.87165,149.21201 779.88767,149.13526 C 779.90228,149.07274 779.92347,148.95284 779.94507,148.88605 C 781.363,144.76485 795.47486,132.92578 801.05918,131.19333 C 807.1048,129.60883 836.12169,100.82889 836.57454,96.368593 C 836.57545,96.351798 836.57454,96.322352 836.57454,96.306294 C 836.57454,96.295619 836.57379,96.255366 836.57454,96.243996 C 836.57601,96.23191 836.57232,96.194456 836.57454,96.181697 C 836.58336,96.141381 836.61663,96.041131 836.63192,95.994825 C 837.32901,94.063206 843.13861,87.388987 850.22988,80.544843 C 857.7938,73.244431 863.8852,65.507233 863.8852,63.225911 C 863.8852,63.177781 863.8813,63.090833 863.8852,63.039015 C 864.0989,60.846853 867.58599,55.560191 871.86038,51.140065 C 887.19843,35.626657 892.45072,29.902647 901.69557,18.49577 C 909.46962,8.9139678 912.8546,6.6573381 919.9983,5.2884875 C 924.64701,4.657584 928.75876,3.2126994 929.86686,1.9244179 C 929.87584,1.9135033 929.91573,1.8730118 929.92423,1.8621196 C 929.93231,1.851226 929.97397,1.81067 929.98164,1.7998212 C 930.00319,1.7673588 930.02144,1.7074687 930.03901,1.6752022 C 930.04436,1.6645044 930.09143,1.6235805 930.09634,1.6129038 C 930.75295,0.72171756 933.37936,-0.20757253 934.57165,-0.38062369 C 934.71474,-0.40138975 934.87867,-0.38229445 934.97328,-0.38062369 C 935.00171,-0.37873574 935.06607,-0.38526728 935.08803,-0.38062369 C 935.09642,-0.37728201 935.13879,-0.32240474 935.1454,-0.31832521"
       id="path2306"
       sodipodi:nodetypes="cssssccsssssssccccccccsssccsssssscccscssssssssscssssssssssccccsssssssssscccccssssccccscscccssscsssssccsssssssssssscssssssccsscsssssssssssssssssssssssssssssssssssssssssssssscccsccccccscssccscccccccccscsssscsssssssscccssssscssc" />
  </g>
</svg>
