<?xml version="1.0" encoding="UTF-8" standalone="no"?>
<svg
   xmlns:dc="http://purl.org/dc/elements/1.1/"
   xmlns:cc="http://web.resource.org/cc/"
   xmlns:rdf="http://www.w3.org/1999/02/22-rdf-syntax-ns#"
   xmlns:svg="http://www.w3.org/2000/svg"
   xmlns="http://www.w3.org/2000/svg"
   xmlns:xlink="http://www.w3.org/1999/xlink"
   xmlns:sodipodi="http://inkscape.sourceforge.net/DTD/sodipodi-0.dtd"
   xmlns:inkscape="http://www.inkscape.org/namespaces/inkscape"
   version="1.0"
   width="313"
   height="100"
   viewBox="0 0 525 425"
   preserveAspectRatio="xMidYMid meet"
   id="svg2300"
   sodipodi:version="0.32"
   inkscape:version="0.43"
   sodipodi:docname="deuxfrere.svg"
   sodipodi:docbase="/home/frvuille/webs/www.miradou.com/htdocs/images">
  <defs
     id="defs3273">
    <linearGradient
       id="linearGradient4835">
      <stop
         id="stop5724"
         offset="0"
         style="stop-color:#fa6f5c;stop-opacity:1;" />
      <stop
         style="stop-color:#9c9295;stop-opacity:1;"
         offset="1"
         id="stop4839" />
    </linearGradient>
    <linearGradient
       inkscape:collect="always"
       xlink:href="#linearGradient4835"
       id="linearGradient5740"
       x1="-256.13068"
       y1="201.65144"
       x2="940.78766"
       y2="201.65144"
       gradientUnits="userSpaceOnUse"
       spreadMethod="pad"
       gradientTransform="matrix(1.020481,0,0,1,-19.32806,5.329071e-15)" />
    <linearGradient
       inkscape:collect="always"
       xlink:href="#linearGradient4835"
       id="linearGradient5748"
       gradientUnits="userSpaceOnUse"
       gradientTransform="matrix(1.020481,0,0,1,-19.32806,5.316345e-15)"
       spreadMethod="pad"
       x1="-256.13068"
       y1="201.65144"
       x2="940.78766"
       y2="201.65144" />
  </defs>
  <sodipodi:namedview
     inkscape:window-height="637"
     inkscape:window-width="845"
     inkscape:pageshadow="2"
     inkscape:pageopacity="0.0"
     borderopacity="1.0"
     bordercolor="#666666"
     pagecolor="#ffffff"
     id="base"
     inkscape:zoom="0.60103991"
     inkscape:cx="486.6821"
     inkscape:cy="117.36925"
     inkscape:window-x="273"
     inkscape:window-y="195"
     inkscape:current-layer="svg2300"
     showgrid="true"
     showguides="true"
     inkscape:grid-points="false"
     inkscape:grid-bbox="true" />
  <metadata
     id="metadata2302">
Created by potrace 1.7, written by Peter Selinger 2001-2005
<rdf:RDF>
  <cc:Work
     rdf:about="">
    <dc:format>image/svg+xml</dc:format>
    <dc:type
       rdf:resource="http://purl.org/dc/dcmitype/StillImage" />
  </cc:Work>
</rdf:RDF>
</metadata>
  <g
     id="g1313">
    <g
       id="g5742"
       transform="matrix(1.099533,0,0,1.050619,-94.62047,0.176053)">
      <rect
         y="-0.39069811"
         x="-280.70444"
         height="404.08429"
         width="1221.4319"
         id="rect3960"
         style="opacity:1;fill:url(#linearGradient5748);fill-opacity:1;fill-rule:nonzero;stroke:#000000;stroke-width:5.93794727;stroke-linejoin:miter;stroke-miterlimit:4;stroke-dasharray:none;stroke-opacity:1" />
      <path
         id="path2306"
         d="M 935.91448,-0.52985591 C 934.83022,-0.36514239 932.44178,0.51937435 931.84466,1.3676231 C 931.84019,1.3777854 931.79739,1.4167376 931.79252,1.4269199 C 931.77655,1.4576318 931.75995,1.5146364 931.74035,1.5455348 C 931.73338,1.5558609 931.69549,1.5944629 931.68814,1.6048316 C 931.68041,1.615199 931.64414,1.6537397 931.63597,1.6641284 C 930.62827,2.8903403 926.88907,4.2656101 922.66157,4.8661165 C 916.16513,6.1690157 913.08685,8.3169206 906.01718,17.43707 C 897.60998,28.294362 892.83358,33.742588 878.88526,48.508557 C 874.99815,52.715721 871.82702,57.747671 871.63268,59.834214 C 871.62913,59.883535 871.63268,59.966294 871.63268,60.012105 C 871.63268,62.183513 866.0932,69.547931 859.21462,76.496608 C 852.76587,83.011 847.48265,89.363654 846.84872,91.202207 C 846.83482,91.246282 846.80456,91.341702 846.79654,91.380076 C 846.79452,91.39222 846.79788,91.42787 846.79654,91.439373 C 846.79586,91.450196 846.79654,91.488509 846.79654,91.49867 C 846.79654,91.513954 846.79737,91.541981 846.79654,91.557967 C 846.38472,95.803362 819.99695,123.19668 814.49911,124.70484 C 809.42076,126.35382 796.58753,137.62248 795.29807,141.54512 C 795.27843,141.6087 795.25916,141.72282 795.24587,141.78233 C 795.2313,141.85538 795.19794,141.95311 795.19369,142.01949 C 795.1933,142.03252 795.19369,142.06606 795.19369,142.07879 C 795.00261,142.94734 792.31965,147.28266 788.88033,151.62557 C 783.33919,158.79135 764.08911,170.95629 758.35691,170.95629 C 757.01938,170.95629 754.14534,172.48047 752.04352,174.21762 C 750.13281,175.9548 745.15109,178.58719 741.13858,179.67293 C 735.97962,181.41009 730.04855,186.62388 721.25923,197.04688 C 714.57162,205.29834 707.11641,212.66279 704.82354,213.53139 C 702.53071,214.18284 699.30824,216.12284 697.77965,217.86001 C 696.06,219.38009 688.41296,223.71531 680.77006,227.40678 C 669.49676,232.8355 665.86075,233.92698 662.61252,231.97267 C 660.31965,230.88698 657.25376,229.58072 655.72519,229.3636 C 650.94837,228.495 640.83425,231.75961 638.35031,235.23396 C 637.20385,236.97112 633.58096,238.25812 630.5238,238.25812 C 627.46669,238.25816 622.3108,239.80229 619.25362,241.7566 C 616.00541,243.49373 609.31658,245.88896 604.53976,246.97473 C 599.57184,247.84323 591.50669,250.43648 586.53877,252.60791 C 579.08703,255.86514 576.79425,256.06387 572.97281,253.67523 C 569.15134,251.28667 567.27538,251.74432 559.25032,256.52151 C 554.28244,259.56147 547.78546,262.15468 545.11042,262.15468 C 542.43539,262.15475 533.44721,263.87676 525.23106,265.83107 C 514.14884,268.43681 508.61687,271.0742 504.98648,275.19999 C 501.35618,279.54286 497.13287,281.46708 489.48998,282.55277 C 467.89878,285.59284 451.67586,284.12711 449.00081,278.69848 C 446.70797,274.13839 441.91658,274.3163 437.5219,278.87638 C 435.61119,280.83072 432.5453,282.80997 430.63458,283.02715 C 428.91488,283.24433 422.59209,284.98639 416.85991,286.94072 C 411.12771,288.8951 404.29932,289.96404 401.6243,289.3126 C 398.94928,288.87829 393.77578,288.20518 390.14539,287.77088 C 382.31142,287.11944 380.40087,285.38661 376.57945,275.61505 C 375.33747,272.26284 373.68481,270.04513 372.30095,269.68538 C 372.26115,269.676 372.18378,269.69167 372.14439,269.68538 C 372.10519,269.68016 372.02665,269.68743 371.98788,269.68538 C 371.94928,269.68437 371.86944,269.68317 371.83135,269.68538 C 371.80607,269.68752 371.75204,269.68178 371.727,269.68538 C 371.65218,269.69833 371.53859,269.7186 371.46611,269.74468 C 371.45409,269.74939 371.42585,269.7396 371.41394,269.74468 C 371.10045,269.89735 370.80368,270.02044 370.57912,270.04114 C 370.52087,270.04458 370.42181,270.04601 370.37039,270.04114 C 370.34555,270.03772 370.28912,269.98725 370.26604,269.98187 C 370.24386,269.9755 370.18212,269.99009 370.1617,269.98187 C 370.15191,269.97728 370.11882,269.92758 370.10953,269.92257 C 370.10065,269.9171 370.06573,269.9285 370.05734,269.92257 C 370.0494,269.91618 370.01261,269.87005 370.00516,269.86328 C 369.99865,269.85563 369.95904,269.81199 369.95298,269.80397 C 369.93627,269.77865 369.9132,269.71418 369.9008,269.68538 C 369.8899,269.65548 369.85508,269.59994 369.84862,269.56676 C 369.84533,269.54399 369.84994,269.47236 369.84862,269.4482 C 369.8485,269.43578 369.84826,269.40162 369.84862,269.3889 C 369.85041,269.36284 369.84476,269.29759 369.84862,269.2703 C 369.85599,269.22848 369.8887,269.13678 369.9008,269.0924 C 369.93737,268.97194 369.9857,268.81305 370.05734,268.67733 C 370.06928,268.65697 370.10018,268.6382 370.10953,268.61803 C 370.12156,268.58796 370.15546,268.529 370.1617,268.49943 C 370.16315,268.48965 370.16091,268.44986 370.1617,268.44012 C 370.16185,268.43047 370.16219,268.39046 370.1617,268.38087 C 370.16057,268.37129 370.16345,268.33105 370.1617,268.32156 C 370.15927,268.3121 370.11253,268.27164 370.10953,268.26226 C 370.10587,268.25293 370.11378,268.21224 370.10953,268.20297 C 370.10459,268.19372 370.06286,268.15283 370.05734,268.14366 C 370.03264,268.10726 369.98765,268.06047 369.95298,268.02505 C 369.94369,268.01629 369.9107,267.9745 369.9008,267.96576 C 369.83773,267.91381 369.725,267.8375 369.63993,267.78789 C 368.23517,267.00852 364.08771,266.48336 357.84797,266.48336 C 351.03659,266.48331 345.31471,267.23699 344.38637,268.02505 C 344.37188,268.03856 344.34584,268.07084 344.33417,268.08436 C 344.32397,268.09788 344.28938,268.13011 344.282,268.14366 C 344.27905,268.15044 344.28421,268.19619 344.282,268.20297 C 344.28127,268.20973 344.282,268.25544 344.282,268.26226 C 344.28141,268.27198 344.28319,268.31144 344.282,268.32156 C 344.27487,268.36358 344.24621,268.45132 344.22982,268.49943 C 344.20652,268.56144 344.16266,268.66557 344.12548,268.73664 C 342.23376,272.1885 325.14672,285.50379 321.8982,286.05127 C 321.85855,286.05683 321.77676,286.04989 321.74164,286.05127 C 321.7327,286.05127 321.69877,286.05083 321.68947,286.05127 C 321.67987,286.0521 321.6472,286.05001 321.63728,286.05127 C 320.36758,286.25915 316.67304,289.67123 313.34117,293.87843 C 309.3914,298.79476 305.95497,301.15605 303.84503,300.40109 C 303.82841,300.39469 303.80924,300.40786 303.79284,300.40109 C 301.88208,299.96677 298.97348,300.7986 297.63597,302.53577 C 293.81454,306.66156 291.13753,306.482 282.34817,301.05337 C 278.57446,298.775 276.47184,297.80556 275.14777,297.9699 C 275.01567,297.98944 274.84773,298.04631 274.73036,298.08851 C 274.5569,298.156 274.3547,298.26775 274.20858,298.38502 C 274.14857,298.43554 274.05605,298.50389 273.99989,298.56288 C 273.9777,298.58715 273.91715,298.65589 273.89554,298.68149 C 273.71409,298.90476 273.52605,299.19439 273.37377,299.51161 C 272.60949,301.03165 270.51951,304.29795 268.99093,306.68653 C 267.94599,308.21338 267.21067,309.14703 266.5908,309.53277 C 266.5169,309.57644 266.40132,309.62327 266.32989,309.65137 C 266.30624,309.65991 266.24904,309.7039 266.22558,309.71067 C 266.20219,309.71662 266.1444,309.70642 266.1212,309.71067 C 266.09805,309.71406 266.03986,309.70898 266.01685,309.71067 C 265.99389,309.71155 265.93538,309.71149 265.91248,309.71067 C 265.88965,309.709 265.83095,309.71402 265.80816,309.71067 C 265.78536,309.70649 265.72656,309.71652 265.70379,309.71067 C 265.68099,309.70402 265.62225,309.65968 265.59944,309.65137 C 265.55371,309.6331 265.48902,309.61694 265.44288,309.59206 C 265.41976,309.57884 265.36183,309.54766 265.33857,309.53277 C 264.85967,309.21139 264.34213,308.54975 263.66889,307.57599 C 262.33139,305.62169 259.26551,302.98847 256.78156,301.46843 C 252.76899,299.07987 251.22519,299.53747 244.72871,304.31466 C 241.06107,307.29194 238.03246,310.27721 237.68487,311.43028 C 237.6783,311.45823 237.63563,311.52342 237.63266,311.54888 C 237.63212,311.5571 237.63284,311.60024 237.63266,311.60819 C 237.63333,311.61553 237.63163,311.66039 237.63266,311.66745 C 238.20592,314.70759 234.96875,320.79916 232.67589,320.79916 C 231.33842,320.79911 225.81653,323.21444 220.46651,326.25448 C 214.92542,329.29458 209.76883,331.65048 208.62239,331.65048 C 208.61493,331.65048 208.57781,331.65081 208.5702,331.65048 C 208.56232,331.64935 208.52604,331.65191 208.51802,331.65048 C 207.51619,331.42606 205.47457,328.46647 203.82212,325.12783 C 200.956,319.04773 200.21249,318.60684 192.76064,319.90971 C 188.36597,320.56113 179.74374,322.75845 173.82047,324.71275 C 163.50259,328.18704 162.967,328.8133 162.39378,335.97912 C 162.01161,340.75641 160.44265,344.24304 157.95874,345.76309 C 155.66585,347.06601 154.14983,350.09586 154.14983,353.35305 C 154.14983,358.13027 153.2181,359.00713 145.38413,359.87571 C 140.41622,360.52708 135.22514,362.24923 133.69653,363.55211 C 131.40367,365.72354 127.051,380.70209 125.7135,391.12511 C 124.94919,396.77091 122.99449,397.42565 118.40872,393.73416 C 114.01409,390.25977 107.13566,389.17157 104.84279,391.77734 C 104.83679,391.78243 104.84943,391.83157 104.84279,391.83664 C 104.83545,391.84173 104.79859,391.83157 104.79062,391.83664 C 104.78196,391.84173 104.74772,391.89086 104.73844,391.89595 C 103.52484,392.51506 97.44114,393.11096 90.702875,392.90399 C 80.958182,392.68682 77.167817,391.59534 74.110666,388.33815 C 71.81775,385.94953 67.793662,383.11838 64.927552,381.81549 C 58.048968,378.77546 37.416592,347.09634 26.525428,322.99314 C 20.22005,309.31297 13.506334,302.79301 5.8634321,303.01015 C 3.1884113,303.01015 0.95429535,302.30272 0.43704811,301.40913 C 0.42076946,301.37694 0.39665068,301.3233 0.38487726,301.29054 C 0.38222868,301.28232 0.38724426,301.2395 0.38487726,301.23122 C 0.37863858,301.20642 0.33629651,301.13779 0.33269761,301.11263 C 0.33208166,301.10422 0.33299679,301.0618 0.33269761,301.05337 C 0.33269761,300.53082 0.24574327,300.07962 0.07183458,299.74882 C 0.058961254,299.72567 0.033276197,299.65246 0.019637336,299.63023 C 0.012624321,299.61937 -0.025344511,299.58155 -0.032542311,299.57092 C -0.039951292,299.56053 -0.077119391,299.52183 -0.084713157,299.51161 C -0.092509307,299.50173 -0.12887667,299.46202 -0.1368928,299.45235 C -1.9237949,297.3888 -8.2599438,300.81458 -12.81586,307.10161 C -16.828343,312.74746 -17.979912,316.03869 -16.833456,318.42731 C -15.878119,320.59876 -16.104436,323.60865 -17.250866,325.7801 C -18.588381,328.82008 -18.395853,330.78437 -16.102993,333.60726 C -12.663668,337.73301 -11.89793,346.83044 -14.955085,346.83044 C -14.970026,346.83044 -14.992341,346.83 -15.007282,346.83044 C -15.096753,346.8355 -15.232165,346.87001 -15.320325,346.88974 C -15.466657,346.92655 -15.653817,346.99298 -15.789916,347.06761 C -15.830348,347.09108 -15.907465,347.15956 -15.946463,347.1862 C -16.113227,347.30614 -16.286836,347.48607 -16.416062,347.66058 C -16.483702,347.75666 -16.571915,347.90626 -16.624755,348.01636 C -16.668056,348.11239 -16.750857,348.2667 -16.781276,348.37216 C -16.832866,348.56823 -16.833456,348.80047 -16.833456,349.02443 C -16.835303,349.0614 -16.87644,349.15326 -16.885653,349.2023 C -17.221081,350.78799 -20.889732,357.85112 -25.442622,365.50888 C -29.958256,372.8986 -33.612617,379.75523 -33.999626,381.57833 C -34.005117,381.60711 -34.04811,381.67092 -34.051806,381.69693 C -34.053161,381.70921 -34.050856,381.7446 -34.051806,381.7562 C -34.052264,381.76708 -34.051806,381.80533 -34.051806,381.81549 C -34.051806,381.86639 -34.046826,381.94353 -34.051806,381.99339 C -34.060561,382.05938 -34.086827,382.16674 -34.103977,382.2306 C -34.156817,382.40448 -34.254532,382.61191 -34.364849,382.76427 C -34.385782,382.79155 -34.446559,382.85643 -34.469226,382.88284 C -34.93945,383.40238 -35.757465,383.77231 -36.71281,383.77231 C -38.241445,383.77227 -39.757444,385.29645 -40.521713,387.0336 C -41.094923,388.77079 -43.620691,390.29493 -46.104653,390.29493 C -51.645744,390.29499 -56.333465,397.16404 -58.053106,405.41562 C -58.053106,405.41558 936.54091,405.53818 936.54059,405.5342 C 936.13209,401.95968 936.64147,0.20845276 936.43624,-0.47055898 C 936.43023,-0.47444196 936.3917,-0.52667524 936.38407,-0.52985591 C 936.3641,-0.53427577 936.30557,-0.52805893 936.27972,-0.52985591 C 936.19368,-0.53144618 936.0446,-0.54962146 935.91448,-0.52985591 z M -152.12783,310.8966 C -152.84989,311.2166 -153.67878,313.06061 -154.37143,315.22528 C -154.94468,317.61391 -158.58521,323.69126 -162.40666,328.68563 C -166.22811,333.8971 -172.90003,346.6858 -177.48575,357.32596 C -182.64473,369.0518 -187.62858,377.50852 -190.11253,379.02857 C -192.59647,380.33148 -194.68721,383.8349 -195.06932,386.44067 C -195.83361,392.52072 -198.69588,392.32282 -205.76557,386.02555 C -210.35128,381.68264 -212.06569,381.20496 -215.3139,382.94213 C -217.6068,384.24496 -220.67267,385.98715 -222.20123,386.85573 C -223.72982,387.72428 -225.26278,390.5947 -225.64493,393.20049 C -225.91362,395.03263 -226.28536,396.29051 -226.7928,396.99549 C -226.94125,397.19189 -227.14062,397.36751 -227.31457,397.46984 C -227.36874,397.49909 -227.46658,397.5681 -227.5233,397.58842 C -227.59498,397.61108 -227.70826,397.63898 -227.78416,397.64772 C -228.65918,397.71573 -229.8528,396.83854 -231.38436,395.09797 C -233.29508,392.92651 -234.64057,392.92651 -237.69775,395.09797 C -239.79953,396.61798 -242.27314,397.29113 -243.2285,396.63969 C -245.80948,394.75406 -252.92026,400.92165 -252.04637,403.69601 C -252.04255,403.70713 -252.05043,403.74428 -252.04637,403.75531 C -252.04202,403.7662 -251.99879,403.8038 -251.99419,403.81462 C -251.9893,403.82527 -251.99933,403.86335 -251.99419,403.87389 C -251.98876,403.88431 -251.9477,403.92287 -251.94201,403.93318 C -252.05484,403.9358 -76.403103,405.6409 -74.906216,405.41562 C -74.90311,405.41065 -74.856809,405.36164 -74.854046,405.35633 C -74.851863,405.35028 -74.855885,405.3034 -74.854046,405.29703 C -74.852814,405.2899 -74.854934,405.24519 -74.854046,405.23771 C -74.853738,405.22956 -74.85401,405.18696 -74.854046,405.17841 C -74.938026,403.01566 -84.239052,390.32802 -102.19468,369.30389 C -107.03118,363.80745 -110.86589,358.08195 -111.32559,356.14003 C -111.33568,356.09304 -111.37195,356.00435 -111.37777,355.96211 C -111.3807,355.93508 -111.37679,355.8684 -111.37777,355.84354 C -111.37777,355.81979 -111.3758,355.75049 -111.37777,355.72495 C -111.3807,355.69853 -111.37296,355.63452 -111.37777,355.60635 C -111.38646,355.56284 -111.41709,355.47578 -111.42995,355.42844 C -111.99076,353.51868 -115.77243,348.74397 -120.35219,344.33995 C -125.12902,339.77994 -134.09956,330.17899 -140.02282,323.23031 C -145.71471,316.76171 -150.91151,311.31378 -151.81477,310.8966 C -151.82097,310.89454 -151.86132,310.89798 -151.86694,310.8966 C -151.89084,310.8966 -151.94706,310.89284 -151.97132,310.8966 C -152.00794,310.90502 -152.09051,310.88006 -152.12783,310.8966 z "
         style="opacity:1;fill:#6d6ff6;fill-opacity:1;fill-rule:nonzero;stroke:#000000;stroke-width:5.87805939;stroke-linejoin:miter;marker-start:none;stroke-miterlimit:4;stroke-dasharray:none;stroke-opacity:0.96130958" />
      <text
         transform="matrix(1.08337,5.413149e-4,-0.385153,0.922853,0,0)"
         sodipodi:linespacing="125%"
         id="text2210"
         y="315.8891"
         x="-132.75276"
         style="font-size:443.41229248px;font-style:normal;font-variant:normal;font-weight:normal;font-stretch:normal;text-align:start;line-height:125%;writing-mode:lr-tb;text-anchor:start;opacity:0.61261262;fill:#1013f0;fill-opacity:1;stroke:#000000;stroke-width:1px;stroke-linecap:butt;stroke-linejoin:miter;stroke-opacity:1;font-family:El Abogado Loco"
         xml:space="preserve"><tspan
           y="315.8891"
           x="-132.75276"
           id="tspan2212"
           sodipodi:role="line">Miradou</tspan></text>
    </g>
  </g>
</svg>
