<?xml version="1.0" encoding="UTF-8" standalone="no"?>
<svg
   xmlns:dc="http://purl.org/dc/elements/1.1/"
   xmlns:cc="http://creativecommons.org/ns#"
   xmlns:rdf="http://www.w3.org/1999/02/22-rdf-syntax-ns#"
   xmlns:svg="http://www.w3.org/2000/svg"
   xmlns="http://www.w3.org/2000/svg"
   xmlns:sodipodi="http://sodipodi.sourceforge.net/DTD/sodipodi-0.dtd"
   xmlns:inkscape="http://www.inkscape.org/namespaces/inkscape"
   version="1.0"
   width="308"
   height="101"
   viewBox="0 0 516.6134 429.25"
   preserveAspectRatio="xMidYMid meet"
   id="svg2300"
   sodipodi:version="0.32"
   inkscape:version="0.48.1 r9760"
   sodipodi:docname="logo-miradou.svg">
  <defs
     id="defs3273" />
  <sodipodi:namedview
     inkscape:window-height="637"
     inkscape:window-width="845"
     inkscape:pageshadow="2"
     inkscape:pageopacity="0.0"
     borderopacity="1.0"
     bordercolor="#666666"
     pagecolor="#ffffff"
     id="base"
     inkscape:zoom="4.728107"
     inkscape:cx="62.327109"
     inkscape:cy="41.017617"
     inkscape:window-x="273"
     inkscape:window-y="138"
     inkscape:current-layer="svg2300"
     showgrid="true"
     showguides="true"
     inkscape:grid-points="false"
     inkscape:grid-bbox="true"
     inkscape:window-maximized="0" />
  <metadata
     id="metadata2302">
Created by potrace 1.7, written by Peter Selinger 2001-2005
<rdf:RDF>
  <cc:Work
     rdf:about="">
    <dc:format>image/svg+xml</dc:format>
    <dc:type
       rdf:resource="http://purl.org/dc/dcmitype/StillImage" />
    <dc:title />
  </cc:Work>
</rdf:RDF>
</metadata>
  <path
     id="path2306"
     d="m 911.9764,2.9705002 c -1.19218,0.17305 -3.81835,1.10234 -4.47491,1.99352 -0.004,0.0107 -0.052,0.0516 -0.0573,0.0623 -0.0176,0.0323 -0.0358,0.0922 -0.0574,0.12462 -0.008,0.0109 -0.0494,0.0514 -0.0574,0.0623 -0.009,0.0109 -0.0484,0.0514 -0.0574,0.0623 -1.108,1.2882796 -5.21937,2.7331706 -9.86765,3.3640702 -7.14305,1.3688496 -10.52772,3.6254796 -18.30105,13.2072796 -9.244,11.40688 -14.49581,17.13089 -29.83244,32.6443 -4.27401,4.42012 -7.76077,9.70679 -7.97446,11.89895 -0.004,0.0518 0,0.13876 0,0.18689 0,2.28132 -6.09084,10.01852 -13.65406,17.31894 -7.09062,6.84414 -12.89969,13.51836 -13.59672,15.44998 -0.0153,0.0463 -0.0486,0.14655 -0.0574,0.18687 -0.002,0.0127 10e-4,0.0502 0,0.0623 -7.5e-4,0.0114 0,0.0516 0,0.0623 0,0.0161 9.1e-4,0.0455 0,0.0623 -0.45281,4.4603 -29.46704,33.24024 -35.51209,34.82474 -5.58382,1.73245 -19.69438,13.57152 -21.11218,17.69272 -0.0215,0.0668 -0.0428,0.18669 -0.0574,0.24921 -0.016,0.0767 -0.0527,0.17943 -0.0574,0.24917 -4.3e-4,0.0137 0,0.049 0,0.0623 -0.2101,0.91251 -3.1601,5.46728 -6.94175,10.03003 -6.09267,7.5285 -27.25876,20.30922 -33.56151,20.30922 -1.47066,0 -4.63076,1.60133 -6.94178,3.42642 -2.10089,1.82511 -7.57845,4.59075 -11.99034,5.73145 -5.67245,1.82509 -12.19385,7.3028 -21.858,18.2534 -7.35325,8.66914 -15.5505,16.40637 -18.07158,17.31894 -2.52105,0.68442 -6.06426,2.72263 -7.74499,4.54773 -1.89081,1.59702 -10.29899,6.15169 -18.70261,10.03002 -12.39536,5.70351 -16.39328,6.85024 -19.96481,4.79701 -2.52109,-1.14065 -5.89214,-2.51303 -7.57285,-2.74114 -5.25227,-0.91257 -16.37308,2.51729 -19.10425,6.16751 -1.26057,1.82509 -5.24406,3.17724 -8.60551,3.17724 -3.36139,4e-5 -9.03046,1.62234 -12.39193,3.67557 -3.57152,1.82506 -10.92611,4.34154 -16.17838,5.48227 -5.46239,0.91246 -14.33029,3.63698 -19.79268,5.91832 -8.19344,3.42211 -10.71442,3.6309 -14.91622,1.12135 -4.20183,-2.50947 -6.26451,-2.02865 -15.08833,2.99036 -5.46235,3.19384 -12.60599,5.91831 -15.54729,5.91831 -2.94128,7e-5 -12.82408,1.80925 -21.85801,3.86249 -12.18527,2.73764 -18.26785,5.50853 -22.25959,9.84316 -3.99163,4.5627 -8.6353,6.58433 -17.03891,7.72497 -23.74024,3.19396 -41.57787,1.65403 -44.51918,-4.04939 -2.52105,-4.79092 -7.78934,-4.604 -12.62144,0.18691 -2.10089,2.05326 -5.47193,4.1327 -7.57283,4.36087 -1.89087,0.22818 -8.84299,2.05842 -15.14571,4.11168 -6.30274,2.0533 -13.81078,3.17635 -16.75205,2.49194 -2.94128,-0.4563 -8.62971,-1.16348 -12.62144,-1.61976 -8.61371,-0.68442 -10.71443,-2.50496 -14.9162,-12.77115 -1.3656,-3.52189 -3.18275,-5.85186 -4.70435,-6.22982 -0.0438,-0.009 -0.12884,0.006 -0.17215,0 -0.0431,-0.005 -0.12946,0.002 -0.17209,0 -0.0424,-10e-4 -0.13022,-0.002 -0.17211,0 -0.0278,0.002 -0.0872,-0.004 -0.11473,0 -0.0822,0.0136 -0.20716,0.0349 -0.28686,0.0623 -0.0132,0.005 -0.0443,-0.005 -0.0574,0 -0.3447,0.1604 -0.67101,0.28972 -0.91792,0.31147 -0.064,0.003 -0.17296,0.005 -0.2295,0 -0.0273,-0.003 -0.0894,-0.0566 -0.11474,-0.0623 -0.0244,-0.006 -0.0922,0.008 -0.11472,0 -0.011,-0.005 -0.0472,-0.057 -0.0574,-0.0623 -0.01,-0.005 -0.0482,0.006 -0.0574,0 -0.009,-0.006 -0.0491,-0.0552 -0.0574,-0.0623 -0.008,-0.008 -0.0507,-0.0539 -0.0574,-0.0623 -0.0184,-0.0266 -0.0438,-0.0943 -0.0574,-0.12459 -0.012,-0.0314 -0.0503,-0.0897 -0.0574,-0.12463 -0.003,-0.024 0.001,-0.0992 0,-0.12456 -1.3e-4,-0.013 -3.9e-4,-0.049 0,-0.0623 0.002,-0.0274 -0.004,-0.0959 0,-0.1246 0.008,-0.0439 0.0441,-0.14028 0.0574,-0.18691 0.0402,-0.12656 0.0933,-0.29349 0.17212,-0.43608 0.0131,-0.0214 0.0471,-0.0411 0.0574,-0.0623 0.0132,-0.0316 0.0505,-0.0935 0.0574,-0.12461 10e-4,-0.0105 -8.7e-4,-0.0521 0,-0.0623 1.7e-4,-0.0105 5.4e-4,-0.0522 0,-0.0622 -0.001,-0.0105 0.002,-0.0523 0,-0.0623 -0.002,-0.009 -0.0541,-0.0524 -0.0574,-0.0623 -0.004,-0.009 0.004,-0.0525 0,-0.0623 -0.005,-0.009 -0.0513,-0.0526 -0.0574,-0.0623 -0.0272,-0.0382 -0.0766,-0.0874 -0.11475,-0.12461 -0.01,-0.009 -0.0465,-0.0532 -0.0574,-0.0623 -0.0694,-0.0545 -0.1933,-0.13475 -0.28684,-0.18687 -1.54458,-0.81882 -6.10485,-1.37056 -12.96565,-1.37056 -7.48933,-6e-5 -13.78073,0.79177 -14.80147,1.61973 -0.0159,0.0142 -0.0445,0.0481 -0.0574,0.0623 -0.0112,0.0142 -0.0493,0.048 -0.0574,0.0623 -0.003,0.007 0.002,0.0552 0,0.0623 -8.1e-4,0.007 0,0.0552 0,0.0623 -6.5e-4,0.0105 10e-4,0.0517 0,0.0623 -0.008,0.0441 -0.0394,0.13633 -0.0574,0.18688 -0.0256,0.0651 -0.0739,0.17455 -0.11472,0.24921 -2.08001,3.62659 -20.86778,17.61589 -24.43963,18.19108 -0.0435,0.006 -0.13353,-10e-4 -0.17214,0 -0.01,0 -0.0472,-4.6e-4 -0.0574,0 -0.011,8.8e-4 -0.0465,-10e-4 -0.0574,0 -1.39607,0.21841 -5.45834,3.8032 -9.12184,8.22337 -4.3429,5.16519 -8.12137,7.646 -10.44132,6.85283 -0.0182,-0.006 -0.0394,0.007 -0.0574,0 -2.10094,-0.45631 -5.29904,0.41763 -6.76968,2.24273 -4.20179,4.33464 -7.14525,4.14599 -16.80944,-1.55743 -4.14932,-2.3937 -6.46122,-3.41222 -7.91708,-3.23956 -0.14525,0.0205 -0.3299,0.0803 -0.45895,0.12462 -0.19073,0.0709 -0.41305,0.18831 -0.57372,0.31152 -0.066,0.0531 -0.16771,0.12488 -0.22946,0.18686 -0.0244,0.0255 -0.0909,0.0977 -0.11474,0.12461 -0.19951,0.23457 -0.40626,0.53887 -0.5737,0.87214 -0.84035,1.59699 -3.13835,5.02862 -4.81908,7.53811 -1.14894,1.60414 -1.95745,2.58505 -2.63902,2.99031 -0.0813,0.0459 -0.20834,0.0951 -0.28688,0.12461 -0.0259,0.009 -0.0888,0.0551 -0.11469,0.0623 -0.0257,0.006 -0.0893,-0.004 -0.11477,0 -0.0254,0.003 -0.0894,-0.002 -0.11473,0 -0.0253,9.2e-4 -0.0896,8.6e-4 -0.11476,0 -0.0251,-0.002 -0.0896,0.003 -0.11471,0 -0.0251,-0.004 -0.0897,0.006 -0.11475,0 -0.0251,-0.007 -0.0896,-0.0536 -0.11474,-0.0623 -0.0503,-0.0192 -0.12141,-0.0361 -0.17214,-0.0623 -0.0254,-0.0139 -0.0892,-0.0466 -0.1147,-0.0623 -0.52656,-0.33764 -1.09561,-1.03278 -1.83586,-2.05583 -1.47063,-2.05322 -4.84167,-4.81973 -7.57285,-6.41672 -4.41195,-2.50946 -6.10941,-2.0287 -13.25251,2.99031 -4.03269,3.12799 -7.36275,6.26437 -7.74493,7.4758 -0.008,0.0294 -0.0541,0.0978 -0.0574,0.12461 -5.9e-4,0.008 2e-4,0.054 0,0.0623 7.4e-4,0.007 -0.001,0.0548 0,0.0623 0.63032,3.19403 -2.92905,9.59395 -5.45013,9.59395 -1.47059,-5e-5 -7.54209,2.53754 -13.42462,5.73146 -6.09261,3.19399 -11.76245,5.66914 -13.023,5.66914 -0.008,0 -0.049,3.5e-4 -0.0574,0 -0.009,-10e-4 -0.0486,0.001 -0.0574,0 -1.10154,-0.23578 -3.34637,-3.34518 -5.16329,-6.85282 -3.1514,-6.38787 -3.96892,-6.85107 -12.162475,-5.48225 -4.83208,0.68439 -14.31251,2.99294 -20.825339,5.04616 -11.34485,3.65016 -11.933748,4.30812 -12.564023,11.83666 -0.420208,5.01911 -2.145332,8.68223 -4.876473,10.27923 -2.521108,1.36887 -4.188022,4.55209 -4.188022,7.97415 0,5.01904 -1.024468,5.94029 -9.638176,6.85283 -5.462381,0.68435 -11.170145,2.49367 -12.850902,3.8625 -2.521075,2.28135 -7.30698,18.0181 -8.777605,28.96872 -0.840384,5.93158 -2.989642,6.61947 -8.031847,2.74112 -4.8320401,-3.65026 -12.3951015,-4.79355 -14.916187,-2.05588 -0.0066,0.005 0.0077,0.057 0,0.0623 -0.0077,0.005 -0.0486,-0.005 -0.0574,0 -0.0099,0.005 -0.04717,0.057 -0.0574,0.0623 -1.334393,0.65045 -8.0236217,1.27651 -15.432567,1.05906 -10.714612,-0.22816 -14.882243,-1.37489 -18.243681,-4.79696 -2.521137,-2.50953 -6.945754,-5.48399 -10.097137,-6.85283 -7.56323,-3.19391 -30.249208,-36.47659 -42.224402,-61.79987 -6.932976,-14.37265 -14.314924,-21.22265 -22.718544,-20.99451 -2.94127,0 -5.39776,-0.74324 -5.96649,-1.68207 -0.0179,-0.0338 -0.0444,-0.0901 -0.0574,-0.12459 -0.003,-0.008 0.003,-0.0536 0,-0.0623 -0.007,-0.0261 -0.0534,-0.0981 -0.0574,-0.12459 -6.8e-4,-0.008 3.3e-4,-0.0534 0,-0.0623 0,-0.54901 -0.0956,-1.02305 -0.28683,-1.37059 -0.0142,-0.0244 -0.0424,-0.10128 -0.0574,-0.12459 -0.008,-0.0114 -0.0495,-0.0512 -0.0574,-0.0623 -0.008,-0.0109 -0.049,-0.0516 -0.0574,-0.0623 -0.009,-0.0105 -0.0486,-0.0521 -0.0574,-0.0623 -1.96475,-2.168 -8.93156,1.43119 -13.94094,8.03646 -4.41186,5.93164 -5.67804,9.38947 -4.41748,11.899 1.05043,2.28136 0.80158,5.44361 -0.45895,7.72498 -1.47065,3.19386 -1.25895,5.25758 1.26212,8.22336 3.78165,4.33459 4.62361,13.89252 1.26216,13.89252 -0.0164,0 -0.041,-4.6e-4 -0.0574,0 -0.0984,0.005 -0.24727,0.0416 -0.3442,0.0623 -0.1609,0.0387 -0.36669,0.10846 -0.51633,0.18687 -0.0445,0.0247 -0.12925,0.0965 -0.17213,0.12459 -0.18336,0.12601 -0.37425,0.31505 -0.51634,0.49839 -0.0744,0.10097 -0.17137,0.25812 -0.22947,0.37379 -0.0476,0.10086 -0.13865,0.26302 -0.1721,0.37381 -0.0567,0.206 -0.0574,0.44999 -0.0574,0.68529 -0.002,0.0389 -0.0473,0.13535 -0.0574,0.18687 -0.36881,1.66596 -4.40261,9.08662 -9.40867,17.13201 -4.96508,7.76378 -8.98318,14.96748 -9.4087,16.88287 -0.006,0.0303 -0.0533,0.0973 -0.0574,0.1246 -0.002,0.0129 0.001,0.0501 0,0.0623 -5e-4,0.0114 0,0.0516 0,0.0623 0,0.0535 0.006,0.13453 0,0.18691 -0.01,0.0693 -0.0385,0.18212 -0.0574,0.24922 -0.0581,0.18268 -0.16554,0.40061 -0.28684,0.56068 -0.023,0.0287 -0.0898,0.0969 -0.11476,0.12457 -0.51703,0.54584 -1.41647,0.9345 -2.4669,0.9345 -1.68078,-5e-5 -3.34767,1.60129 -4.18801,3.42637 -0.63027,1.82512 -3.40743,3.42641 -6.13863,3.42641 -6.09261,7e-5 -11.24692,7.21682 -13.13772,15.88609 0,-4e-5 1093.58894,0.12876 1093.58859,0.12458 -0.44916,-3.75546 0.11092,-425.8429298 -0.11474,-426.5563198 -0.007,-0.004 -0.0489,-0.0589 -0.0574,-0.0623 -0.022,-0.005 -0.0863,0.002 -0.11473,0 -0.0946,-0.002 -0.25852,-0.0208 -0.40159,0 z M -284.36203,330.16105 c -0.79393,0.3362 -1.70532,2.27355 -2.46691,4.54779 -0.63031,2.50954 -4.63319,8.89452 -8.835,14.1417 -4.20181,5.47527 -11.53781,18.91132 -16.57996,30.09008 -5.67247,12.31939 -11.15238,21.20418 -13.88356,22.80117 -2.73117,1.36886 -5.03001,5.04962 -5.45015,7.78729 -0.84037,6.38782 -3.98753,6.1799 -11.76088,-0.43613 -5.04214,-4.56274 -6.92719,-5.0646 -10.49871,-3.2395 -2.52112,1.36878 -5.89214,3.19916 -7.57285,4.1117 -1.68073,0.91252 -3.36627,3.92824 -3.78646,6.66593 -0.29543,1.92488 -0.70417,3.24643 -1.26212,3.9871 -0.16322,0.20634 -0.38244,0.39085 -0.5737,0.49836 -0.0596,0.0308 -0.16714,0.10327 -0.22951,0.12458 -0.0788,0.0239 -0.20337,0.0532 -0.28682,0.0623 -0.96211,0.0715 -2.27454,-0.85014 -3.95854,-2.67881 -2.1009,-2.28138 -3.58031,-2.28138 -6.94178,0 -2.31098,1.59695 -5.03079,2.30417 -6.08124,1.61976 -2.83787,-1.98108 -10.65641,4.49871 -9.69554,7.4135 0.004,0.0117 -0.004,0.0507 0,0.0623 0.004,0.0114 0.0523,0.051 0.0574,0.0623 0.005,0.0111 -0.005,0.0512 0,0.0623 0.005,0.0109 0.0511,0.0515 0.0574,0.0623 -0.12406,0.003 193.01082,1.79416 194.6567,1.55748 0.003,-0.005 0.0543,-0.0567 0.0574,-0.0623 0.002,-0.006 -0.002,-0.0556 0,-0.0623 0.001,-0.007 -9.8e-4,-0.0544 0,-0.0623 3.4e-4,-0.008 4e-5,-0.0533 0,-0.0623 -0.0923,-2.27223 -10.31912,-15.6021 -30.06193,-37.69045 -5.31789,-5.77467 -9.53428,-11.78998 -10.03974,-13.8302 -0.0111,-0.0494 -0.051,-0.14255 -0.0574,-0.18693 -0.003,-0.0284 10e-4,-0.0984 0,-0.12457 0,-0.025 0.002,-0.0978 0,-0.12459 -0.003,-0.0277 0.005,-0.095 0,-0.12461 -0.01,-0.0457 -0.0432,-0.13718 -0.0574,-0.18691 -0.61663,-2.00643 -4.7747,-7.02283 -9.81029,-11.64978 -5.25229,-4.79083 -15.11569,-14.87777 -21.62851,-22.17819 -6.25842,-6.79603 -11.97248,-12.51973 -12.96564,-12.95803 -0.007,-0.002 -0.0511,10e-4 -0.0574,0 -0.0263,0 -0.0881,-0.004 -0.11476,0 -0.0403,0.008 -0.13106,-0.0173 -0.17209,0 z"
     style="fill:#6d6ff6;fill-opacity:1;fill-rule:nonzero;stroke:none;stroke-width:6.31772518;marker-start:none"
     inkscape:connector-curvature="0" />
</svg>
